<?xml version="1.0" standalone="no"?>
<!DOCTYPE svg PUBLIC "-//W3C//DTD SVG 20010904//EN"
 "http://www.w3.org/TR/2001/REC-SVG-20010904/DTD/svg10.dtd">
<svg version="1.0" xmlns="http://www.w3.org/2000/svg"
 width="812.000000pt" height="795.000000pt" viewBox="0 0 812.000000 795.000000"
 preserveAspectRatio="xMidYMid meet">

<g transform="translate(0.000000,795.000000) scale(0.100000,-0.100000)"
fill="#000000" stroke="none">
<path d="M3765 7693 c-1420 -94 -2672 -1009 -3198 -2338 -337 -851 -341 -1825
-11 -2681 104 -272 204 -464 369 -714 576 -870 1484 -1454 2510 -1615 636 -99
1305 -29 1901 201 272 104 464 204 714 369 870 576 1454 1484 1615 2510 126
803 -20 1646 -406 2348 -316 573 -795 1071 -1352 1403 -585 349 -1249 529
-1921 522 -94 -1 -193 -3 -221 -5z m-202 -2226 c52 -31 104 -87 123 -133 20
-47 17 -141 -5 -190 -22 -48 -78 -105 -129 -131 -27 -13 -60 -18 -122 -18 -75
0 -91 3 -131 27 -89 52 -132 125 -132 223 0 69 18 111 72 168 63 67 117 88
213 83 49 -2 78 -10 111 -29z m1123 16 c63 -21 145 -102 162 -159 29 -100 9
-178 -68 -254 -62 -63 -104 -80 -197 -80 -157 0 -286 150 -255 297 33 159 200
250 358 196z m344 -1525 c0 -335 -4 -578 -11 -633 -22 -183 -84 -339 -186
-473 -256 -336 -837 -434 -1278 -217 -191 94 -335 259 -407 465 -48 140 -51
164 -55 613 l-5 427 -559 0 -559 0 0 180 0 180 1530 0 1530 0 0 -542z"/>
<path d="M3420 3770 c0 -417 6 -472 66 -598 71 -149 212 -249 403 -288 102
-20 303 -15 396 11 203 56 331 183 391 390 15 51 18 117 21 458 l4 397 -640 0
-641 0 0 -370z"/>
</g>
</svg>
